<mxfile host="app.diagrams.net" modified="2021-04-27T08:31:49.321Z" agent="5.0 (Windows NT 10.0; Win64; x64) AppleWebKit/537.36 (KHTML, like Gecko) Chrome/90.0.4430.85 Safari/537.36" etag="OE1MgtWZDhXncSQNezfF" version="14.6.3" type="github">
  <diagram id="viFm08r9GcRl7o6fiDz1" name="Page-1">
    <mxGraphModel dx="2272" dy="766" grid="1" gridSize="10" guides="1" tooltips="1" connect="1" arrows="1" fold="1" page="1" pageScale="1" pageWidth="850" pageHeight="1100" math="0" shadow="0">
      <root>
        <mxCell id="0" />
        <mxCell id="1" parent="0" />
        <mxCell id="h9tuWWrnxnAwjh6RNH55-6" value="secretaries" style="whiteSpace=wrap;html=1;shadow=0;sketch=0;" vertex="1" parent="1">
          <mxGeometry x="-810" y="300" width="110" height="60" as="geometry" />
        </mxCell>
        <mxCell id="h9tuWWrnxnAwjh6RNH55-7" value="E1" style="text;html=1;align=center;verticalAlign=middle;whiteSpace=wrap;shadow=0;sketch=0;" vertex="1" parent="1">
          <mxGeometry x="-810" y="300" width="40" height="20" as="geometry" />
        </mxCell>
        <mxCell id="h9tuWWrnxnAwjh6RNH55-8" value="insert" style="ellipse;whiteSpace=wrap;html=1;shadow=0;sketch=0;" vertex="1" parent="1">
          <mxGeometry x="-470" y="140" width="120" height="80" as="geometry" />
        </mxCell>
        <mxCell id="h9tuWWrnxnAwjh6RNH55-11" value="insert" style="ellipse;whiteSpace=wrap;html=1;shadow=0;sketch=0;" vertex="1" parent="1">
          <mxGeometry x="-470" y="140" width="120" height="80" as="geometry" />
        </mxCell>
        <mxCell id="h9tuWWrnxnAwjh6RNH55-14" value="update" style="ellipse;whiteSpace=wrap;html=1;shadow=0;sketch=0;" vertex="1" parent="1">
          <mxGeometry x="-470" y="240" width="120" height="80" as="geometry" />
        </mxCell>
        <mxCell id="h9tuWWrnxnAwjh6RNH55-15" value="insert" style="ellipse;whiteSpace=wrap;html=1;shadow=0;sketch=0;" vertex="1" parent="1">
          <mxGeometry x="-470" y="340" width="120" height="80" as="geometry" />
        </mxCell>
        <mxCell id="h9tuWWrnxnAwjh6RNH55-18" value="delete" style="ellipse;whiteSpace=wrap;html=1;shadow=0;sketch=0;" vertex="1" parent="1">
          <mxGeometry x="-470" y="340" width="120" height="80" as="geometry" />
        </mxCell>
        <mxCell id="h9tuWWrnxnAwjh6RNH55-20" value="search" style="ellipse;whiteSpace=wrap;html=1;shadow=0;sketch=0;" vertex="1" parent="1">
          <mxGeometry x="-470" y="440" width="120" height="80" as="geometry" />
        </mxCell>
        <mxCell id="h9tuWWrnxnAwjh6RNH55-31" value="Administrative&lt;br&gt;management" style="whiteSpace=wrap;html=1;shadow=0;sketch=0;" vertex="1" parent="1">
          <mxGeometry x="-170" y="300" width="110" height="60" as="geometry" />
        </mxCell>
        <mxCell id="h9tuWWrnxnAwjh6RNH55-32" value="E2" style="text;html=1;align=center;verticalAlign=middle;whiteSpace=wrap;shadow=0;sketch=0;" vertex="1" parent="1">
          <mxGeometry x="-170" y="300" width="40" height="20" as="geometry" />
        </mxCell>
        <mxCell id="h9tuWWrnxnAwjh6RNH55-82" style="edgeStyle=orthogonalEdgeStyle;orthogonalLoop=1;jettySize=auto;html=1;entryX=0;entryY=0.5;entryDx=0;entryDy=0;" edge="1" parent="1" source="h9tuWWrnxnAwjh6RNH55-37" target="h9tuWWrnxnAwjh6RNH55-42">
          <mxGeometry relative="1" as="geometry" />
        </mxCell>
        <mxCell id="h9tuWWrnxnAwjh6RNH55-83" style="edgeStyle=orthogonalEdgeStyle;orthogonalLoop=1;jettySize=auto;html=1;entryX=0;entryY=0.5;entryDx=0;entryDy=0;" edge="1" parent="1" source="h9tuWWrnxnAwjh6RNH55-37" target="h9tuWWrnxnAwjh6RNH55-45">
          <mxGeometry relative="1" as="geometry" />
        </mxCell>
        <mxCell id="h9tuWWrnxnAwjh6RNH55-84" style="edgeStyle=orthogonalEdgeStyle;orthogonalLoop=1;jettySize=auto;html=1;exitX=1;exitY=0.5;exitDx=0;exitDy=0;entryX=0;entryY=0.5;entryDx=0;entryDy=0;" edge="1" parent="1" source="h9tuWWrnxnAwjh6RNH55-37" target="h9tuWWrnxnAwjh6RNH55-49">
          <mxGeometry relative="1" as="geometry" />
        </mxCell>
        <mxCell id="h9tuWWrnxnAwjh6RNH55-85" value="פרטי עו&quot;ד, נתוני לשכה&lt;br&gt;שופטים" style="edgeStyle=orthogonalEdgeStyle;orthogonalLoop=1;jettySize=auto;html=1;entryX=0;entryY=0.5;entryDx=0;entryDy=0;" edge="1" parent="1" source="h9tuWWrnxnAwjh6RNH55-37" target="h9tuWWrnxnAwjh6RNH55-51">
          <mxGeometry x="-0.6842" relative="1" as="geometry">
            <mxPoint as="offset" />
          </mxGeometry>
        </mxCell>
        <mxCell id="h9tuWWrnxnAwjh6RNH55-37" value="secretaries" style="whiteSpace=wrap;html=1;shadow=0;sketch=0;" vertex="1" parent="1">
          <mxGeometry x="-810" y="300" width="110" height="60" as="geometry" />
        </mxCell>
        <mxCell id="h9tuWWrnxnAwjh6RNH55-38" value="E1" style="text;html=1;align=center;verticalAlign=middle;whiteSpace=wrap;shadow=0;sketch=0;" vertex="1" parent="1">
          <mxGeometry x="-810" y="300" width="40" height="20" as="geometry" />
        </mxCell>
        <mxCell id="h9tuWWrnxnAwjh6RNH55-39" value="insert" style="ellipse;whiteSpace=wrap;html=1;shadow=0;sketch=0;" vertex="1" parent="1">
          <mxGeometry x="-470" y="140" width="120" height="80" as="geometry" />
        </mxCell>
        <mxCell id="h9tuWWrnxnAwjh6RNH55-80" style="edgeStyle=orthogonalEdgeStyle;orthogonalLoop=1;jettySize=auto;html=1;entryX=0.5;entryY=0;entryDx=0;entryDy=0;exitX=1;exitY=0.5;exitDx=0;exitDy=0;" edge="1" parent="1" source="h9tuWWrnxnAwjh6RNH55-42" target="h9tuWWrnxnAwjh6RNH55-69">
          <mxGeometry relative="1" as="geometry">
            <Array as="points">
              <mxPoint x="-310" y="180" />
              <mxPoint x="-310" y="580" />
              <mxPoint x="-405" y="580" />
            </Array>
          </mxGeometry>
        </mxCell>
        <mxCell id="h9tuWWrnxnAwjh6RNH55-81" style="edgeStyle=orthogonalEdgeStyle;orthogonalLoop=1;jettySize=auto;html=1;exitX=0;exitY=0.5;exitDx=0;exitDy=0;entryX=1;entryY=0;entryDx=0;entryDy=0;" edge="1" parent="1" source="h9tuWWrnxnAwjh6RNH55-42" target="h9tuWWrnxnAwjh6RNH55-70">
          <mxGeometry relative="1" as="geometry">
            <Array as="points">
              <mxPoint x="-510" y="180" />
              <mxPoint x="-510" y="580" />
              <mxPoint x="-405" y="580" />
            </Array>
          </mxGeometry>
        </mxCell>
        <mxCell id="h9tuWWrnxnAwjh6RNH55-86" style="edgeStyle=orthogonalEdgeStyle;orthogonalLoop=1;jettySize=auto;html=1;entryX=1;entryY=0;entryDx=0;entryDy=0;" edge="1" parent="1" source="h9tuWWrnxnAwjh6RNH55-42" target="h9tuWWrnxnAwjh6RNH55-72">
          <mxGeometry relative="1" as="geometry" />
        </mxCell>
        <mxCell id="h9tuWWrnxnAwjh6RNH55-87" style="edgeStyle=orthogonalEdgeStyle;orthogonalLoop=1;jettySize=auto;html=1;" edge="1" parent="1" source="h9tuWWrnxnAwjh6RNH55-42" target="h9tuWWrnxnAwjh6RNH55-73">
          <mxGeometry relative="1" as="geometry">
            <Array as="points">
              <mxPoint x="-590" y="170" />
            </Array>
          </mxGeometry>
        </mxCell>
        <mxCell id="h9tuWWrnxnAwjh6RNH55-42" value="insert" style="ellipse;whiteSpace=wrap;html=1;shadow=0;sketch=0;" vertex="1" parent="1">
          <mxGeometry x="-470" y="140" width="120" height="80" as="geometry" />
        </mxCell>
        <mxCell id="h9tuWWrnxnAwjh6RNH55-88" style="edgeStyle=orthogonalEdgeStyle;orthogonalLoop=1;jettySize=auto;html=1;entryX=0.75;entryY=0;entryDx=0;entryDy=0;" edge="1" parent="1" source="h9tuWWrnxnAwjh6RNH55-45" target="h9tuWWrnxnAwjh6RNH55-73">
          <mxGeometry relative="1" as="geometry" />
        </mxCell>
        <mxCell id="h9tuWWrnxnAwjh6RNH55-90" style="edgeStyle=orthogonalEdgeStyle;orthogonalLoop=1;jettySize=auto;html=1;" edge="1" parent="1" source="h9tuWWrnxnAwjh6RNH55-45" target="h9tuWWrnxnAwjh6RNH55-69">
          <mxGeometry relative="1" as="geometry">
            <Array as="points">
              <mxPoint x="-320" y="280" />
              <mxPoint x="-320" y="570" />
              <mxPoint x="-361" y="570" />
            </Array>
          </mxGeometry>
        </mxCell>
        <mxCell id="h9tuWWrnxnAwjh6RNH55-92" style="edgeStyle=orthogonalEdgeStyle;orthogonalLoop=1;jettySize=auto;html=1;exitX=1;exitY=1;exitDx=0;exitDy=0;entryX=0.75;entryY=0;entryDx=0;entryDy=0;" edge="1" parent="1" source="h9tuWWrnxnAwjh6RNH55-45" target="h9tuWWrnxnAwjh6RNH55-72">
          <mxGeometry relative="1" as="geometry" />
        </mxCell>
        <mxCell id="h9tuWWrnxnAwjh6RNH55-45" value="update" style="ellipse;whiteSpace=wrap;html=1;shadow=0;sketch=0;" vertex="1" parent="1">
          <mxGeometry x="-470" y="240" width="120" height="80" as="geometry" />
        </mxCell>
        <mxCell id="h9tuWWrnxnAwjh6RNH55-46" value="insert" style="ellipse;whiteSpace=wrap;html=1;shadow=0;sketch=0;" vertex="1" parent="1">
          <mxGeometry x="-470" y="340" width="120" height="80" as="geometry" />
        </mxCell>
        <mxCell id="h9tuWWrnxnAwjh6RNH55-94" style="edgeStyle=orthogonalEdgeStyle;orthogonalLoop=1;jettySize=auto;html=1;entryX=0.25;entryY=0;entryDx=0;entryDy=0;" edge="1" parent="1" source="h9tuWWrnxnAwjh6RNH55-49" target="h9tuWWrnxnAwjh6RNH55-72">
          <mxGeometry relative="1" as="geometry" />
        </mxCell>
        <mxCell id="h9tuWWrnxnAwjh6RNH55-96" style="edgeStyle=orthogonalEdgeStyle;orthogonalLoop=1;jettySize=auto;html=1;exitX=1;exitY=1;exitDx=0;exitDy=0;" edge="1" parent="1" source="h9tuWWrnxnAwjh6RNH55-49" target="h9tuWWrnxnAwjh6RNH55-69">
          <mxGeometry relative="1" as="geometry">
            <Array as="points">
              <mxPoint x="-300" y="408" />
              <mxPoint x="-300" y="640" />
            </Array>
          </mxGeometry>
        </mxCell>
        <mxCell id="h9tuWWrnxnAwjh6RNH55-98" style="edgeStyle=orthogonalEdgeStyle;orthogonalLoop=1;jettySize=auto;html=1;entryX=0.946;entryY=0.033;entryDx=0;entryDy=0;entryPerimeter=0;" edge="1" parent="1" source="h9tuWWrnxnAwjh6RNH55-49" target="h9tuWWrnxnAwjh6RNH55-73">
          <mxGeometry relative="1" as="geometry" />
        </mxCell>
        <mxCell id="h9tuWWrnxnAwjh6RNH55-49" value="delete" style="ellipse;whiteSpace=wrap;html=1;shadow=0;sketch=0;" vertex="1" parent="1">
          <mxGeometry x="-470" y="340" width="120" height="80" as="geometry" />
        </mxCell>
        <mxCell id="h9tuWWrnxnAwjh6RNH55-103" value="&lt;span style=&quot;color: rgb(0 , 0 , 0) ; font-family: &amp;#34;helvetica&amp;#34; ; font-size: 11px ; letter-spacing: normal ; text-align: center ; text-indent: 0px ; text-transform: none ; word-spacing: 0px ; display: inline ; float: none&quot;&gt;דוח מסודר של עו&quot;דים \ נתוני לשכה \ שופטים&lt;/span&gt;" style="edgeStyle=orthogonalEdgeStyle;orthogonalLoop=1;jettySize=auto;html=1;exitX=1;exitY=1;exitDx=0;exitDy=0;entryX=1;entryY=0.5;entryDx=0;entryDy=0;" edge="1" parent="1" source="h9tuWWrnxnAwjh6RNH55-51" target="h9tuWWrnxnAwjh6RNH55-62">
          <mxGeometry x="0.3915" relative="1" as="geometry">
            <mxPoint as="offset" />
          </mxGeometry>
        </mxCell>
        <mxCell id="h9tuWWrnxnAwjh6RNH55-51" value="search" style="ellipse;whiteSpace=wrap;html=1;shadow=0;sketch=0;" vertex="1" parent="1">
          <mxGeometry x="-470" y="440" width="120" height="80" as="geometry" />
        </mxCell>
        <mxCell id="h9tuWWrnxnAwjh6RNH55-62" value="Administrative&lt;br&gt;management" style="whiteSpace=wrap;html=1;shadow=0;sketch=0;" vertex="1" parent="1">
          <mxGeometry x="-170" y="300" width="110" height="60" as="geometry" />
        </mxCell>
        <mxCell id="h9tuWWrnxnAwjh6RNH55-63" value="E2" style="text;html=1;align=center;verticalAlign=middle;whiteSpace=wrap;shadow=0;sketch=0;" vertex="1" parent="1">
          <mxGeometry x="-170" y="300" width="40" height="20" as="geometry" />
        </mxCell>
        <mxCell id="h9tuWWrnxnAwjh6RNH55-76" style="edgeStyle=orthogonalEdgeStyle;orthogonalLoop=1;jettySize=auto;html=1;entryX=0.5;entryY=0;entryDx=0;entryDy=0;" edge="1" parent="1" source="h9tuWWrnxnAwjh6RNH55-64" target="h9tuWWrnxnAwjh6RNH55-42">
          <mxGeometry relative="1" as="geometry" />
        </mxCell>
        <mxCell id="h9tuWWrnxnAwjh6RNH55-64" value="Firms" style="shape=process;whiteSpace=wrap;html=1;backgroundOutline=1;" vertex="1" parent="1">
          <mxGeometry x="-537.5" y="10" width="120" height="60" as="geometry" />
        </mxCell>
        <mxCell id="h9tuWWrnxnAwjh6RNH55-65" value="D1" style="text;html=1;strokeColor=none;fillColor=none;align=center;verticalAlign=middle;whiteSpace=wrap;" vertex="1" parent="1">
          <mxGeometry x="-537.5" y="10" width="60" height="20" as="geometry" />
        </mxCell>
        <mxCell id="h9tuWWrnxnAwjh6RNH55-77" style="edgeStyle=orthogonalEdgeStyle;orthogonalLoop=1;jettySize=auto;html=1;entryX=0.5;entryY=0;entryDx=0;entryDy=0;" edge="1" parent="1" source="h9tuWWrnxnAwjh6RNH55-66" target="h9tuWWrnxnAwjh6RNH55-42">
          <mxGeometry relative="1" as="geometry" />
        </mxCell>
        <mxCell id="h9tuWWrnxnAwjh6RNH55-66" value="Courts" style="shape=process;whiteSpace=wrap;html=1;backgroundOutline=1;" vertex="1" parent="1">
          <mxGeometry x="-402.5" y="10" width="120" height="60" as="geometry" />
        </mxCell>
        <mxCell id="h9tuWWrnxnAwjh6RNH55-67" value="D2" style="text;html=1;strokeColor=none;fillColor=none;align=center;verticalAlign=middle;whiteSpace=wrap;" vertex="1" parent="1">
          <mxGeometry x="-402.5" y="10" width="60" height="20" as="geometry" />
        </mxCell>
        <mxCell id="h9tuWWrnxnAwjh6RNH55-91" style="edgeStyle=orthogonalEdgeStyle;orthogonalLoop=1;jettySize=auto;html=1;exitX=0.75;exitY=0;exitDx=0;exitDy=0;entryX=1;entryY=0.5;entryDx=0;entryDy=0;" edge="1" parent="1" source="h9tuWWrnxnAwjh6RNH55-69" target="h9tuWWrnxnAwjh6RNH55-45">
          <mxGeometry relative="1" as="geometry">
            <Array as="points">
              <mxPoint x="-375" y="570" />
              <mxPoint x="-330" y="570" />
              <mxPoint x="-330" y="280" />
            </Array>
          </mxGeometry>
        </mxCell>
        <mxCell id="h9tuWWrnxnAwjh6RNH55-97" style="edgeStyle=orthogonalEdgeStyle;orthogonalLoop=1;jettySize=auto;html=1;exitX=1;exitY=0.25;exitDx=0;exitDy=0;entryX=1;entryY=0.5;entryDx=0;entryDy=0;" edge="1" parent="1" source="h9tuWWrnxnAwjh6RNH55-69" target="h9tuWWrnxnAwjh6RNH55-49">
          <mxGeometry relative="1" as="geometry">
            <Array as="points">
              <mxPoint x="-290" y="617" />
              <mxPoint x="-290" y="380" />
            </Array>
          </mxGeometry>
        </mxCell>
        <mxCell id="h9tuWWrnxnAwjh6RNH55-69" value="Lawyers" style="shape=process;whiteSpace=wrap;html=1;backgroundOutline=1;" vertex="1" parent="1">
          <mxGeometry x="-465" y="602" width="120" height="60" as="geometry" />
        </mxCell>
        <mxCell id="h9tuWWrnxnAwjh6RNH55-100" style="edgeStyle=orthogonalEdgeStyle;orthogonalLoop=1;jettySize=auto;html=1;" edge="1" parent="1" source="h9tuWWrnxnAwjh6RNH55-70" target="h9tuWWrnxnAwjh6RNH55-51">
          <mxGeometry relative="1" as="geometry" />
        </mxCell>
        <mxCell id="h9tuWWrnxnAwjh6RNH55-70" value="D3" style="text;html=1;strokeColor=none;fillColor=none;align=center;verticalAlign=middle;whiteSpace=wrap;" vertex="1" parent="1">
          <mxGeometry x="-465" y="602" width="60" height="20" as="geometry" />
        </mxCell>
        <mxCell id="h9tuWWrnxnAwjh6RNH55-102" style="edgeStyle=orthogonalEdgeStyle;orthogonalLoop=1;jettySize=auto;html=1;exitX=0.75;exitY=0;exitDx=0;exitDy=0;entryX=1;entryY=0.5;entryDx=0;entryDy=0;" edge="1" parent="1" source="h9tuWWrnxnAwjh6RNH55-71" target="h9tuWWrnxnAwjh6RNH55-51">
          <mxGeometry relative="1" as="geometry" />
        </mxCell>
        <mxCell id="h9tuWWrnxnAwjh6RNH55-71" value="Bar" style="shape=process;whiteSpace=wrap;html=1;backgroundOutline=1;" vertex="1" parent="1">
          <mxGeometry x="-282.5" y="602" width="120" height="60" as="geometry" />
        </mxCell>
        <mxCell id="h9tuWWrnxnAwjh6RNH55-93" style="edgeStyle=orthogonalEdgeStyle;orthogonalLoop=1;jettySize=auto;html=1;exitX=0.5;exitY=0;exitDx=0;exitDy=0;entryX=1;entryY=0.5;entryDx=0;entryDy=0;" edge="1" parent="1" source="h9tuWWrnxnAwjh6RNH55-72" target="h9tuWWrnxnAwjh6RNH55-45">
          <mxGeometry relative="1" as="geometry" />
        </mxCell>
        <mxCell id="h9tuWWrnxnAwjh6RNH55-95" style="edgeStyle=orthogonalEdgeStyle;orthogonalLoop=1;jettySize=auto;html=1;entryX=1;entryY=0.5;entryDx=0;entryDy=0;" edge="1" parent="1" source="h9tuWWrnxnAwjh6RNH55-72" target="h9tuWWrnxnAwjh6RNH55-49">
          <mxGeometry relative="1" as="geometry">
            <Array as="points">
              <mxPoint x="-252" y="380" />
            </Array>
          </mxGeometry>
        </mxCell>
        <mxCell id="h9tuWWrnxnAwjh6RNH55-72" value="D4" style="text;html=1;strokeColor=none;fillColor=none;align=center;verticalAlign=middle;whiteSpace=wrap;" vertex="1" parent="1">
          <mxGeometry x="-282.5" y="602" width="60" height="20" as="geometry" />
        </mxCell>
        <mxCell id="h9tuWWrnxnAwjh6RNH55-89" style="edgeStyle=orthogonalEdgeStyle;orthogonalLoop=1;jettySize=auto;html=1;exitX=0.75;exitY=0;exitDx=0;exitDy=0;entryX=0;entryY=0.65;entryDx=0;entryDy=0;entryPerimeter=0;" edge="1" parent="1" source="h9tuWWrnxnAwjh6RNH55-73" target="h9tuWWrnxnAwjh6RNH55-45">
          <mxGeometry relative="1" as="geometry">
            <Array as="points">
              <mxPoint x="-560" y="602" />
              <mxPoint x="-560" y="292" />
            </Array>
          </mxGeometry>
        </mxCell>
        <mxCell id="h9tuWWrnxnAwjh6RNH55-73" value="Judges" style="shape=process;whiteSpace=wrap;html=1;backgroundOutline=1;" vertex="1" parent="1">
          <mxGeometry x="-657.5" y="602" width="120" height="60" as="geometry" />
        </mxCell>
        <mxCell id="h9tuWWrnxnAwjh6RNH55-101" style="edgeStyle=orthogonalEdgeStyle;orthogonalLoop=1;jettySize=auto;html=1;entryX=0.075;entryY=0.775;entryDx=0;entryDy=0;entryPerimeter=0;" edge="1" parent="1" source="h9tuWWrnxnAwjh6RNH55-74" target="h9tuWWrnxnAwjh6RNH55-51">
          <mxGeometry relative="1" as="geometry">
            <Array as="points">
              <mxPoint x="-627" y="560" />
              <mxPoint x="-461" y="560" />
            </Array>
          </mxGeometry>
        </mxCell>
        <mxCell id="h9tuWWrnxnAwjh6RNH55-74" value="D5" style="text;html=1;strokeColor=none;fillColor=none;align=center;verticalAlign=middle;whiteSpace=wrap;" vertex="1" parent="1">
          <mxGeometry x="-657.5" y="602" width="60" height="20" as="geometry" />
        </mxCell>
      </root>
    </mxGraphModel>
  </diagram>
</mxfile>
